<?xml version="1.0" encoding="UTF-8" standalone="no"?>
<!-- Created with Inkscape (http://www.inkscape.org/) -->

<svg
   width="48"
   height="48"
   viewBox="0 0 12.7 12.7"
   version="1.1"
   id="svg1"
   xml:space="preserve"
   inkscape:version="1.3.2 (091e20e, 2023-11-25)"
   sodipodi:docname="favicon.svg"
   xmlns:inkscape="http://www.inkscape.org/namespaces/inkscape"
   xmlns:sodipodi="http://sodipodi.sourceforge.net/DTD/sodipodi-0.dtd"
   xmlns="http://www.w3.org/2000/svg"
   xmlns:svg="http://www.w3.org/2000/svg"><sodipodi:namedview
     id="namedview1"
     pagecolor="#ffffff"
     bordercolor="#000000"
     borderopacity="0.25"
     inkscape:showpageshadow="2"
     inkscape:pageopacity="0.0"
     inkscape:pagecheckerboard="0"
     inkscape:deskcolor="#d1d1d1"
     inkscape:document-units="mm"
     inkscape:zoom="5.0410195"
     inkscape:cx="19.936443"
     inkscape:cy="26.97867"
     inkscape:window-width="1312"
     inkscape:window-height="449"
     inkscape:window-x="0"
     inkscape:window-y="25"
     inkscape:window-maximized="0"
     inkscape:current-layer="layer1" /><defs
     id="defs1" /><g
     inkscape:label="Layer 1"
     inkscape:groupmode="layer"
     id="layer1"><rect
       style="font-variation-settings:'wght' 500;fill:#000000;fill-opacity:1;stroke:#10b981;stroke-width:1.41111;stroke-linejoin:miter;stroke-dasharray:none;stroke-opacity:1;paint-order:fill markers stroke"
       id="rect1"
       width="11.288889"
       height="11.288889"
       x="0.70555556"
       y="0.70555556" /><path
       d="m 10.079972,2.6200276 c 0.257893,0 0.466247,0.2083539 0.466247,0.4662462 v 6.5274516 c 0,0.257892 -0.208354,0.4662466 -0.466247,0.4662466 -0.2578925,0 -0.4662463,-0.2083546 -0.4662463,-0.4662466 V 3.0862738 c 0,-0.2578923 0.2083538,-0.4662462 0.4662463,-0.4662462 z M 8.2149864,4.0187668 c 0.2578923,0 0.4662461,0.2083538 0.4662461,0.466247 v 5.1287116 c 0,0.257892 -0.2083538,0.4662466 -0.4662461,0.4662466 -0.2578932,0 -0.466247,-0.2083546 -0.466247,-0.4662466 V 4.4850138 c 0,-0.2578932 0.2083538,-0.466247 0.466247,-0.466247 z M 6.8162463,5.883753 v 3.7299724 c 0,0.257892 -0.2083538,0.4662466 -0.4662462,0.4662466 -0.2578932,0 -0.466247,-0.2083546 -0.466247,-0.4662466 V 5.883753 c 0,-0.2578923 0.2083538,-0.4662461 0.466247,-0.4662461 0.2578924,0 0.4662462,0.2083538 0.4662462,0.4662461 z M 4.4850139,6.816246 c 0.2578923,0 0.4662461,0.2083539 0.4662461,0.4662468 v 2.3312326 c 0,0.257892 -0.2083538,0.4662466 -0.4662461,0.4662466 -0.2578931,0 -0.466247,-0.2083546 -0.466247,-0.4662466 V 7.2824928 c 0,-0.2578929 0.2083539,-0.4662468 0.466247,-0.4662468 z m -1.39874,1.864986 v 0.9324934 c 0,0.257892 -0.2083538,0.4662466 -0.4662461,0.4662466 -0.2578932,0 -0.466247,-0.2083546 -0.466247,-0.4662466 V 8.681232 c 0,-0.2578923 0.2083538,-0.4662461 0.466247,-0.4662461 0.2578923,0 0.4662461,0.2083538 0.4662461,0.4662461 z"
       id="path1"
       style="stroke-width:0.0145702;fill:#ffffff;fill-opacity:1" /></g></svg>
